<svg xmlns="http://www.w3.org/2000/svg" width="594.944" height="103.579" viewBox="0 0 594.944 103.579">
  <path id="arcstack-logo-black" d="M3.146,0l32.6-94.38H62.3L94.905,0H75.265L50.1-79.89h-2L22.833,0Zm17.4-19.448V-32.175H80.08v12.727ZM103.5,0V-74.742h15.254l-.382,25.5h2.717a53.683,53.683,0,0,1,3.934-15.088,20.326,20.326,0,0,1,7.626-9.1,22.363,22.363,0,0,1,12.132-3.075q1.334,0,2.931.143a24.418,24.418,0,0,1,3.693.668l-.762,19.066a20.378,20.378,0,0,0-4.6-1.287,28.066,28.066,0,0,0-4.363-.382A16.346,16.346,0,0,0,132-55.437a20.82,20.82,0,0,0-6.6,8.056,45.768,45.768,0,0,0-3.79,12.3V0Zm89.1,1.906A44.292,44.292,0,0,1,175.773-1a31.332,31.332,0,0,1-11.751-8.126,34.344,34.344,0,0,1-6.959-12.2,47.893,47.893,0,0,1-2.311-15.135,50.686,50.686,0,0,1,2.408-15.969,36.974,36.974,0,0,1,7.127-12.75,31.99,31.99,0,0,1,11.63-8.46,39.627,39.627,0,0,1,15.92-3A38.048,38.048,0,0,1,207.4-73.693a28.242,28.242,0,0,1,10.868,8.271,29.255,29.255,0,0,1,5.7,12.513L207.09-47.476a17.9,17.9,0,0,0-2.384-7.7,13.906,13.906,0,0,0-5.457-5.219,17.012,17.012,0,0,0-8.174-1.859,16.564,16.564,0,0,0-7.89,1.787,15.334,15.334,0,0,0-5.6,5.148,25.581,25.581,0,0,0-3.407,7.96,41.789,41.789,0,0,0-1.167,10.273A37.892,37.892,0,0,0,175.154-23.6a17.926,17.926,0,0,0,6.53,8.652,19.111,19.111,0,0,0,11.106,3.028,18.063,18.063,0,0,0,9.413-2.193,14.989,14.989,0,0,0,5.577-5.745,21.755,21.755,0,0,0,2.456-7.792L226.2-23.977a32.059,32.059,0,0,1-3.314,10.487,26.537,26.537,0,0,1-6.7,8.222A29.779,29.779,0,0,1,206.135.047,44.823,44.823,0,0,1,192.6,1.906Zm79.048,0A68,68,0,0,1,255.107.072a35.509,35.509,0,0,1-12.393-5.552,24.845,24.845,0,0,1-7.817-9.272,30.881,30.881,0,0,1-2.909-12.893l15.969-4.768a19.644,19.644,0,0,0,2.956,11.275,17.771,17.771,0,0,0,8.651,6.7,35.733,35.733,0,0,0,12.988,2.192,35.02,35.02,0,0,0,11.821-1.739,16.471,16.471,0,0,0,7.27-4.694,10.1,10.1,0,0,0,2.456-6.626,8.261,8.261,0,0,0-3.028-6.673,23.6,23.6,0,0,0-8.128-4.124q-5.1-1.6-11.582-3.028-6.913-1.573-13.61-3.479a54.5,54.5,0,0,1-12.13-5,25,25,0,0,1-8.676-8.033Q233.7-60.585,233.7-68.164a25.435,25.435,0,0,1,4.338-14.847,28.281,28.281,0,0,1,12.512-9.771q8.174-3.5,19.664-3.5A52.393,52.393,0,0,1,290-92.879a29.983,29.983,0,0,1,13.133,9.771,26.43,26.43,0,0,1,5.075,15.183l-16.445,4.48a20.11,20.11,0,0,0-1.548-8.15,15.48,15.48,0,0,0-4.362-5.84,19.24,19.24,0,0,0-6.792-3.5,31.317,31.317,0,0,0-8.984-1.191,29.082,29.082,0,0,0-10.226,1.62,15.709,15.709,0,0,0-6.649,4.385,9.734,9.734,0,0,0-2.336,6.483,8.75,8.75,0,0,0,3.457,7.246,26.993,26.993,0,0,0,9.152,4.385q5.7,1.668,12.37,3.194,6.149,1.287,12.393,3.146a54.4,54.4,0,0,1,11.535,4.885,23.92,23.92,0,0,1,8.485,8.079q3.194,5.053,3.194,12.775a24.731,24.731,0,0,1-4.433,14.656q-4.433,6.269-13.3,9.724T271.648,1.906Zm78.169-.237q-11.869,0-17.471-6.34t-5.6-19.878V-60.3H315.734l.286-14.443h7.436a11.636,11.636,0,0,0,6.007-1.215,5.862,5.862,0,0,0,2.43-4.408l1.716-11.058h10.439v16.682h19.783v14.921H344.048v34.653q0,5.291,2.5,7.7t7.508,2.408a22.915,22.915,0,0,0,5.387-.643,14.285,14.285,0,0,0,4.909-2.216V-.762a41.745,41.745,0,0,1-8.007,1.954A51.27,51.27,0,0,1,349.817,1.669Zm42.36.237A24.6,24.6,0,0,1,381.119-.5a17.8,17.8,0,0,1-7.627-7.15,22.9,22.9,0,0,1-2.765-11.7,21.024,21.024,0,0,1,2.193-9.987,17.5,17.5,0,0,1,6.626-6.793,43.355,43.355,0,0,1,11.082-4.456,129.166,129.166,0,0,1,15.562-3.028q4.719-.715,7.77-1.407a9.069,9.069,0,0,0,4.553-2.217,6.273,6.273,0,0,0,1.5-4.575,10.451,10.451,0,0,0-3.123-7.6q-3.123-3.171-9.987-3.171a22.156,22.156,0,0,0-7.887,1.43,16.5,16.5,0,0,0-6.531,4.481,16.938,16.938,0,0,0-3.79,7.96l-16.112-5.1a31.453,31.453,0,0,1,4.576-9.8,28.458,28.458,0,0,1,7.413-7.175,32.271,32.271,0,0,1,10.178-4.41,51.646,51.646,0,0,1,12.632-1.453q10.439,0,17.135,3.384A21.476,21.476,0,0,1,434.5-62.8q3.289,7.079,3.289,18.186V-30.6q0,4.815.215,10.035t.6,10.439q.382,5.22.9,10.128H423.351q-.523-3.908-.976-8.46t-.69-9.272H419.3a35.491,35.491,0,0,1-5.743,9.842,27.087,27.087,0,0,1-9.034,7.15A27.466,27.466,0,0,1,392.177,1.906Zm7.15-13.393a18.1,18.1,0,0,0,5.745-.978,23.441,23.441,0,0,0,5.768-2.908,25.733,25.733,0,0,0,5.291-4.885,29.583,29.583,0,0,0,4.217-6.912l-.19-12.966,3.432.715a18.443,18.443,0,0,1-6.077,3.1A53.313,53.313,0,0,1,410-34.606q-3.957.619-7.865,1.358a39.106,39.106,0,0,0-7.054,1.979,12.216,12.216,0,0,0-5.005,3.455,9.169,9.169,0,0,0-1.859,6.077,9.478,9.478,0,0,0,3.1,7.556A11.763,11.763,0,0,0,399.327-11.487ZM486.613,1.906A44.292,44.292,0,0,1,469.786-1a31.332,31.332,0,0,1-11.751-8.126,34.345,34.345,0,0,1-6.959-12.2,47.893,47.893,0,0,1-2.311-15.135,50.686,50.686,0,0,1,2.408-15.969,36.974,36.974,0,0,1,7.127-12.75,31.99,31.99,0,0,1,11.63-8.46,39.627,39.627,0,0,1,15.92-3,38.048,38.048,0,0,1,15.565,2.955,28.242,28.242,0,0,1,10.868,8.271,29.255,29.255,0,0,1,5.7,12.513L501.1-47.476a17.9,17.9,0,0,0-2.384-7.7,13.906,13.906,0,0,0-5.457-5.219,17.012,17.012,0,0,0-8.174-1.859,16.564,16.564,0,0,0-7.89,1.787,15.334,15.334,0,0,0-5.6,5.148,25.58,25.58,0,0,0-3.407,7.96,41.789,41.789,0,0,0-1.167,10.273A37.892,37.892,0,0,0,469.167-23.6a17.926,17.926,0,0,0,6.53,8.652A19.111,19.111,0,0,0,486.8-11.916a18.063,18.063,0,0,0,9.413-2.193,14.989,14.989,0,0,0,5.577-5.745,21.754,21.754,0,0,0,2.456-7.792l15.969,3.669A32.059,32.059,0,0,1,516.9-13.49a26.537,26.537,0,0,1-6.7,8.222A29.779,29.779,0,0,1,500.149.047,44.823,44.823,0,0,1,486.613,1.906ZM528.782,0V-101.673h17.781v57.057a81.009,81.009,0,0,0,9.27-6.673,89.65,89.65,0,0,0,8.151-7.674A79.95,79.95,0,0,0,570.61-67a54.312,54.312,0,0,0,4.7-7.747h20.782a62.41,62.41,0,0,1-6.076,10.917,61.751,61.751,0,0,1-8.675,10.057A53.151,53.151,0,0,1,570.3-45.831a42.926,42.926,0,0,1-13.109,4.551v2.145q8.772-1.287,14.8.835a25.38,25.38,0,0,1,10.153,6.46,41.753,41.753,0,0,1,6.982,9.987q2.859,5.649,5.243,11.511L598.09,0H578.26l-2.335-6.721a97.257,97.257,0,0,0-5.673-12.7,25.216,25.216,0,0,0-7.365-8.628q-4.361-3.123-11.272-3.123h-5.052V0Z" transform="translate(-3.146 101.673)"/>
</svg>
