<svg xmlns="http://www.w3.org/2000/svg" width="1232.854" height="104" viewBox="0 0 1232.854 104">
  <g id="dark" transform="translate(-2671.146 -1125)">
    <path id="dark-2" data-name="dark" d="M3.146,0l32.6-94.38H62.3L94.905,0H75.265L50.1-79.89h-2L22.833,0Zm17.4-19.448V-32.175H80.08v12.727ZM103.5,0V-74.742h15.254l-.382,25.5h2.717a53.683,53.683,0,0,1,3.934-15.088,20.326,20.326,0,0,1,7.626-9.1,22.363,22.363,0,0,1,12.132-3.075q1.334,0,2.931.143a24.418,24.418,0,0,1,3.693.668l-.762,19.066a20.378,20.378,0,0,0-4.6-1.287,28.066,28.066,0,0,0-4.363-.382A16.346,16.346,0,0,0,132-55.437a20.82,20.82,0,0,0-6.6,8.056,45.768,45.768,0,0,0-3.79,12.3V0Zm89.1,1.906A44.292,44.292,0,0,1,175.773-1a31.332,31.332,0,0,1-11.751-8.126,34.344,34.344,0,0,1-6.959-12.2,47.893,47.893,0,0,1-2.311-15.135,50.686,50.686,0,0,1,2.408-15.969,36.974,36.974,0,0,1,7.127-12.75,31.99,31.99,0,0,1,11.63-8.46,39.627,39.627,0,0,1,15.92-3A38.048,38.048,0,0,1,207.4-73.693a28.242,28.242,0,0,1,10.868,8.271,29.255,29.255,0,0,1,5.7,12.513L207.09-47.476a17.9,17.9,0,0,0-2.384-7.7,13.906,13.906,0,0,0-5.457-5.219,17.012,17.012,0,0,0-8.174-1.859,16.564,16.564,0,0,0-7.89,1.787,15.334,15.334,0,0,0-5.6,5.148,25.581,25.581,0,0,0-3.407,7.96,41.789,41.789,0,0,0-1.167,10.273A37.892,37.892,0,0,0,175.154-23.6a17.926,17.926,0,0,0,6.53,8.652,19.111,19.111,0,0,0,11.106,3.028,18.063,18.063,0,0,0,9.413-2.193,14.989,14.989,0,0,0,5.577-5.745,21.755,21.755,0,0,0,2.456-7.792L226.2-23.977a32.059,32.059,0,0,1-3.314,10.487,26.537,26.537,0,0,1-6.7,8.222A29.779,29.779,0,0,1,206.135.047,44.823,44.823,0,0,1,192.6,1.906Zm79.048,0A68,68,0,0,1,255.107.072a35.509,35.509,0,0,1-12.393-5.552,24.845,24.845,0,0,1-7.817-9.272,30.881,30.881,0,0,1-2.909-12.893l15.969-4.768a19.644,19.644,0,0,0,2.956,11.275,17.771,17.771,0,0,0,8.651,6.7,35.733,35.733,0,0,0,12.988,2.192,35.02,35.02,0,0,0,11.821-1.739,16.471,16.471,0,0,0,7.27-4.694,10.1,10.1,0,0,0,2.456-6.626,8.261,8.261,0,0,0-3.028-6.673,23.6,23.6,0,0,0-8.128-4.124q-5.1-1.6-11.582-3.028-6.913-1.573-13.61-3.479a54.5,54.5,0,0,1-12.13-5,25,25,0,0,1-8.676-8.033Q233.7-60.585,233.7-68.164a25.435,25.435,0,0,1,4.338-14.847,28.281,28.281,0,0,1,12.512-9.771q8.174-3.5,19.664-3.5A52.393,52.393,0,0,1,290-92.879a29.983,29.983,0,0,1,13.133,9.771,26.43,26.43,0,0,1,5.075,15.183l-16.445,4.48a20.11,20.11,0,0,0-1.548-8.15,15.48,15.48,0,0,0-4.362-5.84,19.24,19.24,0,0,0-6.792-3.5,31.317,31.317,0,0,0-8.984-1.191,29.082,29.082,0,0,0-10.226,1.62,15.709,15.709,0,0,0-6.649,4.385,9.734,9.734,0,0,0-2.336,6.483,8.75,8.75,0,0,0,3.457,7.246,26.993,26.993,0,0,0,9.152,4.385q5.7,1.668,12.37,3.194,6.149,1.287,12.393,3.146a54.4,54.4,0,0,1,11.535,4.885,23.92,23.92,0,0,1,8.485,8.079q3.194,5.053,3.194,12.775a24.731,24.731,0,0,1-4.433,14.656q-4.433,6.269-13.3,9.724T271.648,1.906Zm78.169-.237q-11.869,0-17.471-6.34t-5.6-19.878V-60.3H315.734l.286-14.443h7.436a11.636,11.636,0,0,0,6.007-1.215,5.862,5.862,0,0,0,2.43-4.408l1.716-11.058h10.439v16.682h19.783v14.921H344.048v34.653q0,5.291,2.5,7.7t7.508,2.408a22.915,22.915,0,0,0,5.387-.643,14.285,14.285,0,0,0,4.909-2.216V-.762a41.745,41.745,0,0,1-8.007,1.954A51.27,51.27,0,0,1,349.817,1.669Zm42.36.237A24.6,24.6,0,0,1,381.119-.5a17.8,17.8,0,0,1-7.627-7.15,22.9,22.9,0,0,1-2.765-11.7,21.024,21.024,0,0,1,2.193-9.987,17.5,17.5,0,0,1,6.626-6.793,43.355,43.355,0,0,1,11.082-4.456,129.166,129.166,0,0,1,15.562-3.028q4.719-.715,7.77-1.407a9.069,9.069,0,0,0,4.553-2.217,6.273,6.273,0,0,0,1.5-4.575,10.451,10.451,0,0,0-3.123-7.6q-3.123-3.171-9.987-3.171a22.156,22.156,0,0,0-7.887,1.43,16.5,16.5,0,0,0-6.531,4.481,16.938,16.938,0,0,0-3.79,7.96l-16.112-5.1a31.453,31.453,0,0,1,4.576-9.8,28.458,28.458,0,0,1,7.413-7.175,32.271,32.271,0,0,1,10.178-4.41,51.646,51.646,0,0,1,12.632-1.453q10.439,0,17.135,3.384A21.476,21.476,0,0,1,434.5-62.8q3.289,7.079,3.289,18.186V-30.6q0,4.815.215,10.035t.6,10.439q.382,5.22.9,10.128H423.351q-.523-3.908-.976-8.46t-.69-9.272H419.3a35.491,35.491,0,0,1-5.743,9.842,27.087,27.087,0,0,1-9.034,7.15A27.466,27.466,0,0,1,392.177,1.906Zm7.15-13.393a18.1,18.1,0,0,0,5.745-.978,23.441,23.441,0,0,0,5.768-2.908,25.733,25.733,0,0,0,5.291-4.885,29.583,29.583,0,0,0,4.217-6.912l-.19-12.966,3.432.715a18.443,18.443,0,0,1-6.077,3.1A53.313,53.313,0,0,1,410-34.606q-3.957.619-7.865,1.358a39.106,39.106,0,0,0-7.054,1.979,12.216,12.216,0,0,0-5.005,3.455,9.169,9.169,0,0,0-1.859,6.077,9.478,9.478,0,0,0,3.1,7.556A11.763,11.763,0,0,0,399.327-11.487ZM486.613,1.906A44.292,44.292,0,0,1,469.786-1a31.332,31.332,0,0,1-11.751-8.126,34.345,34.345,0,0,1-6.959-12.2,47.893,47.893,0,0,1-2.311-15.135,50.686,50.686,0,0,1,2.408-15.969,36.974,36.974,0,0,1,7.127-12.75,31.99,31.99,0,0,1,11.63-8.46,39.627,39.627,0,0,1,15.92-3,38.048,38.048,0,0,1,15.565,2.955,28.242,28.242,0,0,1,10.868,8.271,29.255,29.255,0,0,1,5.7,12.513L501.1-47.476a17.9,17.9,0,0,0-2.384-7.7,13.906,13.906,0,0,0-5.457-5.219,17.012,17.012,0,0,0-8.174-1.859,16.564,16.564,0,0,0-7.89,1.787,15.334,15.334,0,0,0-5.6,5.148,25.58,25.58,0,0,0-3.407,7.96,41.789,41.789,0,0,0-1.167,10.273A37.892,37.892,0,0,0,469.167-23.6a17.926,17.926,0,0,0,6.53,8.652A19.111,19.111,0,0,0,486.8-11.916a18.063,18.063,0,0,0,9.413-2.193,14.989,14.989,0,0,0,5.577-5.745,21.754,21.754,0,0,0,2.456-7.792l15.969,3.669A32.059,32.059,0,0,1,516.9-13.49a26.537,26.537,0,0,1-6.7,8.222A29.779,29.779,0,0,1,500.149.047,44.823,44.823,0,0,1,486.613,1.906ZM528.782,0V-101.673h17.781v57.057a81.009,81.009,0,0,0,9.27-6.673,89.65,89.65,0,0,0,8.151-7.674A79.95,79.95,0,0,0,570.61-67a54.312,54.312,0,0,0,4.7-7.747h20.782a62.41,62.41,0,0,1-6.076,10.917,61.751,61.751,0,0,1-8.675,10.057A53.151,53.151,0,0,1,570.3-45.831a42.926,42.926,0,0,1-13.109,4.551v2.145q8.772-1.287,14.8.835a25.38,25.38,0,0,1,10.153,6.46,41.753,41.753,0,0,1,6.982,9.987q2.859,5.649,5.243,11.511L598.09,0H578.26l-2.335-6.721a97.257,97.257,0,0,0-5.673-12.7,25.216,25.216,0,0,0-7.365-8.628q-4.361-3.123-11.272-3.123h-5.052V0Z" transform="translate(2668 1227)" fill="#fff"/>
    <rect id="Rectangle_20" data-name="Rectangle 20" width="596" height="104" rx="30" transform="translate(3308 1125)" fill="#fff"/>
    <path id="Path_18" data-name="Path 18" d="M-223.137,0V-39.6h7.581v18.14a29.981,29.981,0,0,0,5.96-3.22,33.48,33.48,0,0,0,5.13-4.38,30.506,30.506,0,0,0,3.96-5.11,23.008,23.008,0,0,0,2.47-5.43h8.64a26.466,26.466,0,0,1-2.77,6.07,34.854,34.854,0,0,1-4.19,5.51,36.85,36.85,0,0,1-5.02,4.52,27.353,27.353,0,0,1-5.28,3.12v.84a17.974,17.974,0,0,1,5.07.7,12.34,12.34,0,0,1,4.04,2.07,14.42,14.42,0,0,1,3.18,3.5,26.2,26.2,0,0,1,2.51,5.03L-188.878,0h-8.6l-1.92-6.54a17.173,17.173,0,0,0-2.57-5.21,9.148,9.148,0,0,0-3.92-2.95,16.7,16.7,0,0,0-6.15-.96h-3.519V0Zm38.129,0V-31.36h6.34l-.2,9.48h1.119a19.058,19.058,0,0,1,2.25-5.76,9.194,9.194,0,0,1,3.62-3.4,11.126,11.126,0,0,1,5.13-1.12,9.488,9.488,0,0,1,8.15,3.79q2.79,3.79,2.79,11.73V0h-7.62V-15.86q0-5.121-1.53-7.5a5.021,5.021,0,0,0-4.51-2.38,6.174,6.174,0,0,0-4.31,1.59,10.073,10.073,0,0,0-2.67,4.18,18.225,18.225,0,0,0-1,5.65V0Zm49.329.8a17.078,17.078,0,0,1-8.2-1.9,13.447,13.447,0,0,1-5.54-5.59,18.876,18.876,0,0,1-2-9.09,18.375,18.375,0,0,1,2.05-9.13,13.256,13.256,0,0,1,5.6-5.44,17.427,17.427,0,0,1,8.03-1.81,17.245,17.245,0,0,1,8.14,1.87,13.5,13.5,0,0,1,5.6,5.54,18.59,18.59,0,0,1,2.04,9.13,18.517,18.517,0,0,1-2.06,9.18,13.12,13.12,0,0,1-5.63,5.45A17.668,17.668,0,0,1-135.679.8Zm.26-5.76a7.417,7.417,0,0,0,4.27-1.19,7.381,7.381,0,0,0,2.67-3.51,15.146,15.146,0,0,0,.92-5.58,15.782,15.782,0,0,0-.97-5.85,8.191,8.191,0,0,0-2.82-3.75,7.666,7.666,0,0,0-4.57-1.32,7.591,7.591,0,0,0-4.24,1.16,7.2,7.2,0,0,0-2.71,3.45,15.064,15.064,0,0,0-.93,5.65q0,5.28,2.23,8.11A7.4,7.4,0,0,0-135.42-4.96ZM-110.432,0l-7.959-31.36h7.86l5,25.26h1.08l5.74-25.26h9.279l5.86,25.26h1.08l4.9-25.26h7.74L-77.831,0h-10.5l-5.46-25.16h-.921L-99.992,0Zm44.089,0V-42.62h7.461V0ZM-38,.8a19.711,19.711,0,0,1-6.78-1.08,13.47,13.47,0,0,1-5.01-3.14,13.522,13.522,0,0,1-3.12-5.01,19.543,19.543,0,0,1-1.07-6.69,21.525,21.525,0,0,1,1.04-6.84,15.8,15.8,0,0,1,3.02-5.41,13.381,13.381,0,0,1,4.85-3.54,16.1,16.1,0,0,1,6.49-1.25,15.8,15.8,0,0,1,6.13,1.13,11.545,11.545,0,0,1,4.56,3.39,14.788,14.788,0,0,1,2.75,5.59,24.586,24.586,0,0,1,.66,7.73l-24.6.18v-4.38l20.22-.18-2.679,2.44a11.667,11.667,0,0,0-.53-5.59,6.59,6.59,0,0,0-2.6-3.25,7.159,7.159,0,0,0-3.85-1.06,7.313,7.313,0,0,0-4.29,1.29,8.31,8.31,0,0,0-2.87,3.72,15.264,15.264,0,0,0-1.02,5.91q0,5.22,2.32,7.79A8.159,8.159,0,0,0-38-4.88a8.832,8.832,0,0,0,3-.45,6.418,6.418,0,0,0,2.08-1.19,6.166,6.166,0,0,0,1.36-1.7,10.185,10.185,0,0,0,.82-1.98l6.6,1.5a13.5,13.5,0,0,1-1.63,3.95,10.569,10.569,0,0,1-2.8,2.99,12.721,12.721,0,0,1-4.04,1.9A19.847,19.847,0,0,1-38,.8ZM-7.856.8a11.656,11.656,0,0,1-6.89-2.05,13.066,13.066,0,0,1-4.48-5.76A22.172,22.172,0,0,1-20.8-15.7a23.283,23.283,0,0,1,1.43-8.44,12.917,12.917,0,0,1,4.24-5.82,11.209,11.209,0,0,1,6.95-2.12,10.215,10.215,0,0,1,5.25,1.23,9.71,9.71,0,0,1,3.41,3.41,18.7,18.7,0,0,1,2.06,5.06H3.824q-.34-1.84-.65-3.7t-.5-3.57a27.747,27.747,0,0,1-.19-3.03V-42.62H10.1V0H3.684l.1-8.84H2.624A16.3,16.3,0,0,1,.584-3.57,9.113,9.113,0,0,1-2.866-.31,10.5,10.5,0,0,1-7.856.8ZM-5.5-5.48a6.649,6.649,0,0,0,3.53-.92,8.088,8.088,0,0,0,2.5-2.37,10.936,10.936,0,0,0,1.48-3.14,11.53,11.53,0,0,0,.49-3.21v-1a10.617,10.617,0,0,0-.32-2.5,12.494,12.494,0,0,0-.96-2.61,9.931,9.931,0,0,0-1.61-2.34,7.4,7.4,0,0,0-2.27-1.67,6.65,6.65,0,0,0-2.9-.62,6.1,6.1,0,0,0-3.96,1.31A8.213,8.213,0,0,0-12-20.94a15.148,15.148,0,0,0-.86,5.32,14.648,14.648,0,0,0,.89,5.34,7.93,7.93,0,0,0,2.55,3.54A6.3,6.3,0,0,0-5.5-5.48ZM28.946,10.86a37.049,37.049,0,0,1-8.37-.78,9.885,9.885,0,0,1-4.82-2.35,5.319,5.319,0,0,1-1.55-3.89,5.561,5.561,0,0,1,2.17-4.52,12.1,12.1,0,0,1,6.51-2.18v-1.2a12.88,12.88,0,0,1-4.94-.7,2.466,2.466,0,0,1-1.68-2.4,3.593,3.593,0,0,1,1.68-2.91,15.133,15.133,0,0,1,5.52-2.11v-1.2a8.14,8.14,0,0,1-5.71-2.31,7.7,7.7,0,0,1-2.05-5.57,9,9,0,0,1,1.67-5.361,11.043,11.043,0,0,1,4.94-3.69,20.96,20.96,0,0,1,7.99-1.35h15.52v5.94l-9.78-1.4v1.3a11.389,11.389,0,0,1,5.45,2.11,5.039,5.039,0,0,1,1.77,4.07,6.612,6.612,0,0,1-1.58,4.37,10.194,10.194,0,0,1-4.54,2.94,21.516,21.516,0,0,1-7.16,1.05q-.78,0-1.67-.07t-2.83-.31a22.162,22.162,0,0,0-2.04,1.62,1.9,1.9,0,0,0-.76,1.28.932.932,0,0,0,.61.83,4.943,4.943,0,0,0,1.56.44,13.661,13.661,0,0,0,1.85.13h8.32q1.2,0,3.09.19a13.4,13.4,0,0,1,3.78.97,7.664,7.664,0,0,1,3.19,2.47A7.6,7.6,0,0,1,46.386,1a8.129,8.129,0,0,1-1.95,5.6,11.5,11.5,0,0,1-5.82,3.23A38.316,38.316,0,0,1,28.946,10.86Zm.7-6.1a32.426,32.426,0,0,0,5.93-.43,6.2,6.2,0,0,0,3.17-1.37,3.19,3.19,0,0,0,.96-2.38,3.19,3.19,0,0,0-.61-2.07,3.217,3.217,0,0,0-1.54-1.05,8.037,8.037,0,0,0-1.88-.37q-.95-.07-1.61-.07h-7.36a6.833,6.833,0,0,0-4.04,1.59,3.793,3.793,0,0,0-1.18,2.71,2.56,2.56,0,0,0,.96,2.16,5.988,5.988,0,0,0,2.79,1.01A30.781,30.781,0,0,0,29.646,4.76Zm.14-20.2a6.89,6.89,0,0,0,4.79-1.47,4.968,4.968,0,0,0,1.61-3.85,5.721,5.721,0,0,0-1.64-4.21,6.511,6.511,0,0,0-4.82-1.65,6.767,6.767,0,0,0-4.84,1.61,5.437,5.437,0,0,0-1.7,4.13,5.272,5.272,0,0,0,.76,2.83,5.069,5.069,0,0,0,2.23,1.92A8.462,8.462,0,0,0,29.786-15.44ZM64.289.8a19.711,19.711,0,0,1-6.78-1.08A13.47,13.47,0,0,1,52.5-3.42a13.522,13.522,0,0,1-3.12-5.01,19.543,19.543,0,0,1-1.07-6.69,21.525,21.525,0,0,1,1.04-6.84,15.8,15.8,0,0,1,3.02-5.41,13.381,13.381,0,0,1,4.85-3.54,16.1,16.1,0,0,1,6.49-1.25,15.8,15.8,0,0,1,6.13,1.13,11.545,11.545,0,0,1,4.56,3.39,14.788,14.788,0,0,1,2.75,5.59,24.586,24.586,0,0,1,.66,7.73l-24.6.18v-4.38l20.22-.18-2.679,2.44a11.667,11.667,0,0,0-.53-5.59,6.59,6.59,0,0,0-2.6-3.25,7.159,7.159,0,0,0-3.85-1.06,7.313,7.313,0,0,0-4.29,1.29,8.31,8.31,0,0,0-2.87,3.72,15.264,15.264,0,0,0-1.02,5.91q0,5.22,2.32,7.79a8.159,8.159,0,0,0,6.38,2.57,8.832,8.832,0,0,0,3-.45,6.418,6.418,0,0,0,2.08-1.19,6.166,6.166,0,0,0,1.36-1.7,10.185,10.185,0,0,0,.82-1.98l6.6,1.5a13.5,13.5,0,0,1-1.63,3.95,10.569,10.569,0,0,1-2.8,2.99,12.72,12.72,0,0,1-4.04,1.9A19.847,19.847,0,0,1,64.289.8ZM95.718,0V-39.6h15.82a30.385,30.385,0,0,1,6.36.61,14.97,14.97,0,0,1,4.86,1.88,8.742,8.742,0,0,1,3.1,3.26,9.821,9.821,0,0,1,1.08,4.75,8.281,8.281,0,0,1-.95,4.05,7.126,7.126,0,0,1-2.97,2.82,15.939,15.939,0,0,1-5.34,1.55v.861q5.62.42,8.24,2.87a8.514,8.514,0,0,1,2.62,6.53,9.284,9.284,0,0,1-1.72,5.72,10.554,10.554,0,0,1-5.16,3.5A26.631,26.631,0,0,1,113,0Zm7.24-6.18H113.1q4.08,0,6.05-1.29a4.452,4.452,0,0,0,1.97-4.01,5.081,5.081,0,0,0-2.57-4.65q-2.57-1.55-7.79-1.55h-7.8Zm0-16.46h6.56q5.1,0,7.54-1.38a4.486,4.486,0,0,0,2.44-4.161,4.363,4.363,0,0,0-2.16-4.02q-2.16-1.3-6.54-1.3h-7.84ZM141.319.8a10.322,10.322,0,0,1-4.64-1.01,7.468,7.468,0,0,1-3.2-3,9.609,9.609,0,0,1-1.16-4.91,8.821,8.821,0,0,1,.92-4.19,7.345,7.345,0,0,1,2.78-2.85,18.191,18.191,0,0,1,4.65-1.87,54.2,54.2,0,0,1,6.53-1.27q1.98-.3,3.26-.59a3.805,3.805,0,0,0,1.91-.93,2.632,2.632,0,0,0,.63-1.92,4.385,4.385,0,0,0-1.31-3.19,5.683,5.683,0,0,0-4.19-1.33,9.3,9.3,0,0,0-3.309.6,6.922,6.922,0,0,0-2.74,1.88,7.107,7.107,0,0,0-1.59,3.34L133.1-22.58a13.2,13.2,0,0,1,1.92-4.11,11.941,11.941,0,0,1,3.11-3.01,13.54,13.54,0,0,1,4.27-1.85,21.669,21.669,0,0,1,5.3-.61,15.92,15.92,0,0,1,7.19,1.42,9.011,9.011,0,0,1,4.19,4.39,18.183,18.183,0,0,1,1.38,7.63v5.88q0,2.02.09,4.21t.25,4.38q.16,2.19.38,4.25H154.4q-.219-1.64-.41-3.55t-.29-3.89h-1a14.891,14.891,0,0,1-2.41,4.13,11.365,11.365,0,0,1-3.79,3A11.524,11.524,0,0,1,141.319.8Zm3-5.619a7.593,7.593,0,0,0,2.41-.41,9.836,9.836,0,0,0,2.42-1.22,10.8,10.8,0,0,0,2.22-2.05,12.412,12.412,0,0,0,1.77-2.9l-.08-5.44,1.44.3a7.738,7.738,0,0,1-2.55,1.3,22.369,22.369,0,0,1-3.15.72q-1.66.26-3.3.57a16.408,16.408,0,0,0-2.96.83,5.126,5.126,0,0,0-2.1,1.45,3.847,3.847,0,0,0-.78,2.55,3.977,3.977,0,0,0,1.3,3.17A4.935,4.935,0,0,0,144.319-4.82ZM178.983.8a24,24,0,0,1-5.76-.63,14.147,14.147,0,0,1-4.35-1.81A9.578,9.578,0,0,1,166-4.46a8.686,8.686,0,0,1-1.32-3.64l5.9-2.24a4.973,4.973,0,0,0,1.23,2.75,7.131,7.131,0,0,0,3,1.97,13.338,13.338,0,0,0,4.65.72,9.533,9.533,0,0,0,4.67-.94,2.926,2.926,0,0,0,1.65-2.66,2.491,2.491,0,0,0-.93-2.049,7.732,7.732,0,0,0-2.64-1.26q-1.71-.51-4.09-.97-2.2-.48-4.44-1.1a19.233,19.233,0,0,1-4.15-1.67,8.763,8.763,0,0,1-3.08-2.77,7.549,7.549,0,0,1-1.17-4.34,8.308,8.308,0,0,1,1.52-4.99,9.957,9.957,0,0,1,4.45-3.31,18.645,18.645,0,0,1,7.07-1.2,18.883,18.883,0,0,1,6.75,1.09A11.725,11.725,0,0,1,189.7-28a9.722,9.722,0,0,1,2.32,4.7l-6.24,2a5.13,5.13,0,0,0-1.15-2.8,6.018,6.018,0,0,0-2.58-1.76,10.781,10.781,0,0,0-3.77-.6,8.336,8.336,0,0,0-4.35.96,2.929,2.929,0,0,0-1.57,2.6,2.522,2.522,0,0,0,.99,2.07,7.6,7.6,0,0,0,2.75,1.27q1.76.48,4.06.98,2.4.48,4.65,1.1a18.256,18.256,0,0,1,4.06,1.63,7.939,7.939,0,0,1,2.87,2.66,7.7,7.7,0,0,1,1.06,4.23,8.535,8.535,0,0,1-1.66,5.31,10.133,10.133,0,0,1-4.75,3.32A21.633,21.633,0,0,1,178.983.8Zm32.8,0A19.711,19.711,0,0,1,205-.28a13.47,13.47,0,0,1-5.01-3.14,13.522,13.522,0,0,1-3.12-5.01,19.543,19.543,0,0,1-1.07-6.69,21.525,21.525,0,0,1,1.04-6.84,15.8,15.8,0,0,1,3.02-5.41,13.381,13.381,0,0,1,4.85-3.54,16.1,16.1,0,0,1,6.49-1.25,15.8,15.8,0,0,1,6.13,1.13,11.545,11.545,0,0,1,4.56,3.39,14.788,14.788,0,0,1,2.75,5.59,24.587,24.587,0,0,1,.66,7.73l-24.6.18v-4.38l20.22-.18-2.679,2.44a11.667,11.667,0,0,0-.53-5.59,6.59,6.59,0,0,0-2.6-3.25,7.159,7.159,0,0,0-3.85-1.06,7.313,7.313,0,0,0-4.29,1.29,8.31,8.31,0,0,0-2.87,3.72,15.264,15.264,0,0,0-1.02,5.91q0,5.22,2.32,7.79a8.159,8.159,0,0,0,6.38,2.57,8.832,8.832,0,0,0,3-.45,6.419,6.419,0,0,0,2.08-1.19,6.166,6.166,0,0,0,1.36-1.7,10.184,10.184,0,0,0,.82-1.98l6.6,1.5a13.5,13.5,0,0,1-1.63,3.95,10.569,10.569,0,0,1-2.8,2.99,12.72,12.72,0,0,1-4.04,1.9A19.847,19.847,0,0,1,211.785.8Z" transform="translate(3606 1197)" fill="#0d0c0f"/>
  </g>
</svg>
